<mxfile host="app.diagrams.net" modified="2023-06-23T09:07:53.015Z" agent="Mozilla/5.0 (X11; Linux x86_64) AppleWebKit/537.36 (KHTML, like Gecko) Chrome/113.0.0.0 Safari/537.36" etag="7QJU5V18Kk43nHMhLJ2-" version="21.5.0" type="github">
  <diagram name="Page-1" id="0efn9iRxEQWF4mG1pysl">
    <mxGraphModel dx="880" dy="495" grid="1" gridSize="10" guides="1" tooltips="1" connect="1" arrows="1" fold="1" page="1" pageScale="1" pageWidth="827" pageHeight="1169" math="0" shadow="0">
      <root>
        <mxCell id="0" />
        <mxCell id="1" parent="0" />
        <mxCell id="URaaKCkhSCGHimO-XrNB-3" style="edgeStyle=orthogonalEdgeStyle;rounded=0;orthogonalLoop=1;jettySize=auto;html=1;entryX=0;entryY=0.5;entryDx=0;entryDy=0;" edge="1" parent="1" source="URaaKCkhSCGHimO-XrNB-1" target="URaaKCkhSCGHimO-XrNB-2">
          <mxGeometry relative="1" as="geometry" />
        </mxCell>
        <mxCell id="URaaKCkhSCGHimO-XrNB-1" value="Loads Data&lt;br&gt;" style="whiteSpace=wrap;html=1;aspect=fixed;" vertex="1" parent="1">
          <mxGeometry x="220" y="160" width="80" height="80" as="geometry" />
        </mxCell>
        <mxCell id="URaaKCkhSCGHimO-XrNB-4" style="edgeStyle=orthogonalEdgeStyle;rounded=0;orthogonalLoop=1;jettySize=auto;html=1;entryX=1;entryY=0.5;entryDx=0;entryDy=0;" edge="1" parent="1" source="URaaKCkhSCGHimO-XrNB-2" target="URaaKCkhSCGHimO-XrNB-1">
          <mxGeometry relative="1" as="geometry" />
        </mxCell>
        <mxCell id="URaaKCkhSCGHimO-XrNB-10" style="edgeStyle=orthogonalEdgeStyle;rounded=0;orthogonalLoop=1;jettySize=auto;html=1;entryX=0.5;entryY=0;entryDx=0;entryDy=0;" edge="1" parent="1" source="URaaKCkhSCGHimO-XrNB-2" target="URaaKCkhSCGHimO-XrNB-8">
          <mxGeometry relative="1" as="geometry" />
        </mxCell>
        <mxCell id="URaaKCkhSCGHimO-XrNB-2" value="Users&lt;br&gt;&amp;nbsp;Data" style="whiteSpace=wrap;html=1;aspect=fixed;" vertex="1" parent="1">
          <mxGeometry x="290" y="20" width="80" height="80" as="geometry" />
        </mxCell>
        <mxCell id="URaaKCkhSCGHimO-XrNB-6" style="edgeStyle=orthogonalEdgeStyle;rounded=0;orthogonalLoop=1;jettySize=auto;html=1;" edge="1" parent="1" source="URaaKCkhSCGHimO-XrNB-5" target="URaaKCkhSCGHimO-XrNB-1">
          <mxGeometry relative="1" as="geometry" />
        </mxCell>
        <mxCell id="URaaKCkhSCGHimO-XrNB-5" value="credit cards&lt;br&gt;" style="whiteSpace=wrap;html=1;aspect=fixed;" vertex="1" parent="1">
          <mxGeometry x="660" y="160" width="80" height="80" as="geometry" />
        </mxCell>
        <mxCell id="URaaKCkhSCGHimO-XrNB-8" value="Encryption&lt;br&gt;" style="rhombus;whiteSpace=wrap;html=1;" vertex="1" parent="1">
          <mxGeometry x="400" y="160" width="80" height="80" as="geometry" />
        </mxCell>
      </root>
    </mxGraphModel>
  </diagram>
</mxfile>
